<svg id="mermaidChart0" width="1075" xmlns="http://www.w3.org/2000/svg" height="1270" viewBox="-50 -10 1075 1270"><style type="text/css" title="mermaid-svg-internal-css">/*  */
.actor { stroke: rgb(204, 204, 255); fill: rgb(236, 236, 255); }
text.actor { fill: rgb(0, 0, 0); stroke: none; }
.actor-line { stroke: rgb(128, 128, 128); }
.messageLine0 { stroke-width: 1.5px; stroke: rgb(51, 51, 51); }
.messageLine1 { stroke-width: 1.5px; stroke: rgb(51, 51, 51); }
#arrowhead { fill: rgb(51, 51, 51); }
#crosshead path { fill: rgb(51, 51, 51) !important; stroke: rgb(51, 51, 51) !important; }
.messageText { fill: rgb(51, 51, 51); stroke: none; }
.note { stroke: rgb(170, 170, 51); fill: rgb(255, 245, 173); }
.noteText { fill: rgb(0, 0, 0); stroke: none; font-family: 'trebuchet ms', verdana, arial; font-size: 14px; }
text { font-family: 'trebuchet ms', verdana, arial; font-size: 14px; }
.actor { stroke: rgb(19, 84, 12); fill: rgb(205, 228, 152); }
text.actor { fill: rgb(0, 0, 0); stroke: none; }
.actor-line { stroke: rgb(128, 128, 128); }
.messageLine0 { stroke-width: 1.5px; stroke: rgb(51, 51, 51); }
.messageLine1 { stroke-width: 1.5px; stroke: rgb(51, 51, 51); }
#arrowhead { fill: rgb(51, 51, 51); }
#crosshead path { fill: rgb(51, 51, 51) !important; stroke: rgb(51, 51, 51) !important; }
.messageText { fill: rgb(51, 51, 51); stroke: none; }
.note { stroke: rgb(110, 170, 73); fill: rgb(255, 245, 173); }
.noteText { fill: rgb(0, 0, 0); stroke: none; font-family: 'trebuchet ms', verdana, arial; font-size: 14px; }
text { font-family: 'trebuchet ms', verdana, arial; font-size: 14px; }
/*  */
</style><g></g><g><line x1="75" y1="5" x2="75" y2="2000" class="actor-line" stroke-width="0.5px" stroke="#999"></line><rect x="0" y="0" fill="#eaeaea" stroke="#666" width="150" height="65" rx="3" ry="3" class="actor"></rect><text x="75" y="37.5" class="actor" style="text-anchor: middle;">FirstGridDB</text></g><g><line x1="275" y1="5" x2="275" y2="2000" class="actor-line" stroke-width="0.5px" stroke="#999"></line><rect x="200" y="0" fill="#eaeaea" stroke="#666" width="150" height="65" rx="3" ry="3" class="actor"></rect><text x="275" y="37.5" class="actor" style="text-anchor: middle;">GridStoreFactory</text></g><g><line x1="475" y1="5" x2="475" y2="2000" class="actor-line" stroke-width="0.5px" stroke="#999"></line><rect x="400" y="0" fill="#eaeaea" stroke="#666" width="150" height="65" rx="3" ry="3" class="actor"></rect><text x="475" y="37.5" class="actor" style="text-anchor: middle;">GridStore</text></g><g><line x1="675" y1="5" x2="675" y2="2000" class="actor-line" stroke-width="0.5px" stroke="#999"></line><rect x="600" y="0" fill="#eaeaea" stroke="#666" width="150" height="65" rx="3" ry="3" class="actor"></rect><text x="675" y="37.5" class="actor" style="text-anchor: middle;">WeatherStation</text></g><g><line x1="875" y1="5" x2="875" y2="2000" class="actor-line" stroke-width="0.5px" stroke="#999"></line><rect x="800" y="0" fill="#eaeaea" stroke="#666" width="150" height="65" rx="3" ry="3" class="actor"></rect><text x="875" y="37.5" class="actor" style="text-anchor: middle;">Container</text></g><defs><marker id="arrowhead" refX="5" refY="2" markerWidth="6" markerHeight="4" orient="auto"><path d="M 0,0 V 4 L6,2 Z"></path></marker></defs><defs><marker id="crosshead" markerWidth="15" markerHeight="8" orient="auto" refX="16" refY="4"><path fill="black" stroke="#000000" stroke-width="1px" d="M 9,2 V 6 L16,4 Z" style="stroke-dasharray: 0px, 0px;"></path><path fill="none" stroke="#000000" stroke-width="1px" d="M 0,1 L 6,7 M 6,1 L 0,7" style="stroke-dasharray: 0px, 0px;"></path></marker></defs><g><rect x="100" y="75" fill="#EDF2AE" stroke="#666" width="150" height="36" rx="0" ry="0" class="note"></rect><text x="100" y="85" fill="black" class="noteText"><tspan x="110" dy="1em">1. Connection</tspan></text></g><g><text x="175" y="139" class="messageText" style="text-anchor: middle;">getInstance()</text><line x1="75" y1="146" x2="275" y2="146" class="messageLine0" stroke-width="2" stroke="black" marker-end="url(#arrowhead)" style="fill: none;"></line></g><g><text x="175" y="174" class="messageText" style="text-anchor: middle;">GridStoreFactory instance</text><line x1="275" y1="181" x2="75" y2="181" class="messageLine1" stroke-width="2" stroke="black" marker-end="url(#arrowhead)" style="stroke-dasharray: 3px, 3px; fill: none;"></line></g><g><text x="175" y="209" class="messageText" style="text-anchor: middle;">getGridStore(Properties)</text><line x1="75" y1="216" x2="275" y2="216" class="messageLine0" stroke-width="2" stroke="black" marker-end="url(#arrowhead)" style="fill: none;"></line></g><g><text x="275" y="244" class="messageText" style="text-anchor: middle;">Create GridStore instance</text><path d="M 275,251 C 335,241 335,281 275,271" class="messageLine0" stroke-width="2" stroke="black" marker-end="url(#arrowhead)" style="fill: none;"></path></g><g><text x="175" y="309" class="messageText" style="text-anchor: middle;">GridStore instance</text><line x1="275" y1="316" x2="75" y2="316" class="messageLine1" stroke-width="2" stroke="black" marker-end="url(#arrowhead)" style="stroke-dasharray: 3px, 3px; fill: none;"></line></g><g><rect x="100" y="326" fill="#EDF2AE" stroke="#666" width="150" height="36" rx="0" ry="0" class="note"></rect><text x="100" y="336" fill="black" class="noteText"><tspan x="110" dy="1em">2. Create Container</tspan></text></g><g><text x="275" y="390" class="messageText" style="text-anchor: middle;">putCollection(String, Class&lt;WeatherStation&gt;)</text><line x1="75" y1="397" x2="475" y2="397" class="messageLine0" stroke-width="2" stroke="black" marker-end="url(#arrowhead)" style="fill: none;"></line></g><g><text x="475" y="425" class="messageText" style="text-anchor: middle;">Create or Get Container</text><path d="M 475,432 C 535,422 535,462 475,452" class="messageLine0" stroke-width="2" stroke="black" marker-end="url(#arrowhead)" style="fill: none;"></path></g><g><text x="275" y="490" class="messageText" style="text-anchor: middle;">Container instance</text><line x1="475" y1="497" x2="75" y2="497" class="messageLine1" stroke-width="2" stroke="black" marker-end="url(#arrowhead)" style="stroke-dasharray: 3px, 3px; fill: none;"></line></g><g><rect x="100" y="507" fill="#EDF2AE" stroke="#666" width="150" height="36" rx="0" ry="0" class="note"></rect><text x="100" y="517" fill="black" class="noteText"><tspan x="110" dy="1em">3. Registeer Data</tspan></text></g><g><text x="375" y="571" class="messageText" style="text-anchor: middle;">Create</text><line x1="75" y1="578" x2="675" y2="578" class="messageLine0" stroke-width="2" stroke="black" marker-end="url(#arrowhead)" style="fill: none;"></line></g><g><text x="375" y="606" class="messageText" style="text-anchor: middle;">Row Class instance</text><line x1="675" y1="613" x2="75" y2="613" class="messageLine1" stroke-width="2" stroke="black" marker-end="url(#arrowhead)" style="stroke-dasharray: 3px, 3px; fill: none;"></line></g><g><text x="375" y="641" class="messageText" style="text-anchor: middle;">Set the Register Values</text><line x1="75" y1="648" x2="675" y2="648" class="messageLine0" stroke-width="2" stroke="black" marker-end="url(#arrowhead)" style="fill: none;"></line></g><g><text x="375" y="676" class="messageText" style="text-anchor: middle;"></text><line x1="675" y1="683" x2="75" y2="683" class="messageLine1" stroke-width="2" stroke="black" marker-end="url(#arrowhead)" style="stroke-dasharray: 3px, 3px; fill: none;"></line></g><g><text x="475" y="711" class="messageText" style="text-anchor: middle;">put(WeatherStation)</text><line x1="75" y1="718" x2="875" y2="718" class="messageLine0" stroke-width="2" stroke="black" marker-end="url(#arrowhead)" style="fill: none;"></line></g><g><text x="875" y="746" class="messageText" style="text-anchor: middle;">Insert or Update</text><path d="M 875,753 C 935,743 935,783 875,773" class="messageLine0" stroke-width="2" stroke="black" marker-end="url(#arrowhead)" style="fill: none;"></path></g><g><text x="475" y="811" class="messageText" style="text-anchor: middle;"></text><line x1="875" y1="818" x2="75" y2="818" class="messageLine1" stroke-width="2" stroke="black" marker-end="url(#arrowhead)" style="stroke-dasharray: 3px, 3px; fill: none;"></line></g><g><rect x="100" y="828" fill="#EDF2AE" stroke="#666" width="150" height="36" rx="0" ry="0" class="note"></rect><text x="100" y="838" fill="black" class="noteText"><tspan x="110" dy="1em">4. Retieve Data</tspan></text></g><g><text x="275" y="892" class="messageText" style="text-anchor: middle;">getContainter(String, Class&lt;WeatherStation&gt;)</text><line x1="75" y1="899" x2="475" y2="899" class="messageLine0" stroke-width="2" stroke="black" marker-end="url(#arrowhead)" style="fill: none;"></line></g><g><text x="475" y="927" class="messageText" style="text-anchor: middle;">Get Container</text><path d="M 475,934 C 535,924 535,964 475,954" class="messageLine0" stroke-width="2" stroke="black" marker-end="url(#arrowhead)" style="fill: none;"></path></g><g><text x="275" y="992" class="messageText" style="text-anchor: middle;">Container instance</text><line x1="475" y1="999" x2="75" y2="999" class="messageLine1" stroke-width="2" stroke="black" marker-end="url(#arrowhead)" style="stroke-dasharray: 3px, 3px; fill: none;"></line></g><g><text x="475" y="1027" class="messageText" style="text-anchor: middle;">get(String)</text><line x1="75" y1="1034" x2="875" y2="1034" class="messageLine0" stroke-width="2" stroke="black" marker-end="url(#arrowhead)" style="fill: none;"></line></g><g><text x="475" y="1062" class="messageText" style="text-anchor: middle;">WeatherStation instance</text><line x1="875" y1="1069" x2="75" y2="1069" class="messageLine1" stroke-width="2" stroke="black" marker-end="url(#arrowhead)" style="stroke-dasharray: 3px, 3px; fill: none;"></line></g><g><rect x="100" y="1079" fill="#EDF2AE" stroke="#666" width="150" height="36" rx="0" ry="0" class="note"></rect><text x="100" y="1089" fill="black" class="noteText"><tspan x="110" dy="1em">5. Disconnect</tspan></text></g><g><text x="275" y="1143" class="messageText" style="text-anchor: middle;">close()</text><line x1="75" y1="1150" x2="475" y2="1150" class="messageLine0" stroke-width="2" stroke="black" marker-end="url(#arrowhead)" style="fill: none;"></line></g><g><text x="475" y="1178" class="messageText" style="text-anchor: middle;">Release resources</text><path d="M 475,1185 C 535,1175 535,1215 475,1205" class="messageLine0" stroke-width="2" stroke="black" marker-end="url(#arrowhead)" style="fill: none;"></path></g><g><text x="275" y="1243" class="messageText" style="text-anchor: middle;">.</text><line x1="475" y1="1250" x2="75" y2="1250" class="messageLine1" stroke-width="2" stroke="black" marker-end="url(#arrowhead)" style="stroke-dasharray: 3px, 3px; fill: none;"></line></g></svg>